# xmcd
#
# Track frame offsets: 
#        150
#        18742
#        37042
#        59931
#        69429
#        72207
#        94239
#        104156
#        122477
#
# Disc length: 1844 seconds
#
# Revision: 0
# Processed by: cddbd v1.5.2PL0 Copyright (c) Steve Scherf et al.
# Submitted via: ExactAudioCopy v0.99pb4
#
DISCID=8a073209
DTITLE=Underdog Blues Revue - Dog Gone Bad
DYEAR=2008
DGENRE=Blues
TTITLE0=Honey Wyld
TTITLE1=Back Door Blues
TTITLE2=What You Say
TTITLE3=Trouble Man
TTITLE4=Tom Crouse Arena Rock N Roll Fanfare
TTITLE5=Underdog Blues
TTITLE6=Mad River
TTITLE7=Come Back Baby
TTITLE8=Crescent City Stroll
EXTD=
EXTT0=
EXTT1=
EXTT2=
EXTT3=
EXTT4=
EXTT5=
EXTT6=
EXTT7=
EXTT8=
PLAYORDER=
